<?xml version="1.0" encoding="utf-8"?>
<!-- Generator: Adobe Illustrator 24.1.2, SVG Export Plug-In . SVG Version: 6.00 Build 0)  -->
<svg version="1.1" id="Слой_1" xmlns="http://www.w3.org/2000/svg" xmlns:xlink="http://www.w3.org/1999/xlink" x="0px" y="0px"
	 viewBox="0 0 397.2 82.3" style="enable-background:new 0 0 397.2 82.3;" xml:space="preserve">
<g>
	<path d="M243.9,70.4c-6.1,6.1-13.2,10.1-22.2,11.9c-1.6-8.6-3.3-17-4.9-25.5c-1.9,0-3.4,0-5.6,0c-1.6,8.2-3.1,16.5-4.7,24.7
		c-5.5,1-16.6-4.7-22.4-11.5c0.4-0.6,0.7-1.5,1.3-2c6.7-6.3,13.4-12.8,20.3-18.9c4.9-4.4,11-4.7,16-0.4c7.4,6.5,14.4,13.5,21.6,20.3
		C243.5,69.2,243.6,69.8,243.9,70.4z"/>
	<path d="M318.7,24.5c12.3-7.2,20.6-6.4,27.8,2.8c6.9,8.8,4.6,20.3-1.5,26.3c-7.5,7.3-17.2,7.9-26.5,0.8c0,3.7,0,7,0,10.2
		c0,3.4,0,6.7,0,10.5c-2.4,0-4.5,0-7,0c0-18,0-36.1,0-54.4c2.2,0,4.2,0,6.6,0C318.2,21.9,318.4,23,318.7,24.5z M330.8,52.1
		c7.1,0.1,12.6-5.3,12.6-12.5c0.1-7.2-5.2-13-12.2-12.9c-7.5,0-12.3,5.2-12.6,12.5C318.2,46.3,323.8,52,330.8,52.1z"/>
	<path d="M364.8,75.2c-2.7,0-4.8,0-7.1,0c0-18.2,0-36.2,0-54.4c2.2,0,4.2,0,6.5,0c0.3,1.2,0.6,2.5,1,4.3c4.8-4.4,10.2-6.6,16.6-5.1
		c4.6,1.1,8.3,3.5,11,7.2c6.4,8.5,5.6,19.1-1.7,26.6c-7,7.2-17,7.6-26.4,0.8C364.8,61.5,364.8,68.2,364.8,75.2z M389.8,39.6
		c-0.1-7.1-5.6-13.1-12.3-12.9c-8.5,0.2-12.7,7-12.6,13c0.1,6.9,5.6,12.5,12.3,12.4C384.5,52,389.9,46.7,389.8,39.6z"/>
	<path d="M278.2,7c2.8,0,5.3,0,8.2,0c5.9,17.1,11.8,34.1,17.9,51.5c-2.6,0-4.9,0-7.5,0c-2.1-5.7-4.2-11.5-6.3-17.6
		c-5.3,0-10.6,0-16.2,0c-2.1,5.8-4.2,11.7-6.4,17.7c-2.5,0-4.8,0-7.5,0C266.4,41.2,272.3,24.1,278.2,7z M287.9,33.7
		c-1.9-5.5-3.5-10.4-5.2-15.4c-0.2,0-0.5,0-0.7,0.1c-1.7,5-3.5,10.1-5.3,15.3C280.5,33.7,283.9,33.7,287.9,33.7z"/>
	<path d="M146.8,58.5c-1.3,0.1-2,0.3-2.7,0.3c-1.2,0-2.5,0-4,0c0-17.3,0-34.4,0-51.8c2,0,4,0,6.5,0c0,7,0,14,0,21.9
		c4.1-3.8,7.4-6.9,10.7-9.9c3.2,0,6.2,0,10,0c-3,3.6-6.2,6-9.1,8.8c-2.9,2.9-5.9,5.6-9.1,8.7c6.1,7.3,12,14.5,18.3,22.1
		c-3.4,0-6.1,0-9.2,0c-3.4-4.2-7.1-8.5-10.7-12.9c-0.2,0-0.5,0.1-0.7,0.1C146.8,49.9,146.8,54.2,146.8,58.5z"/>
	<path d="M91.1,58.3c-0.9,0.1-1.6,0.3-2.3,0.3c-1.4,0-2.7,0-4.1,0c-0.3-1-0.4-1.7-0.6-2.5c-0.2,0.1-0.5,0-0.7,0.2
		c-8.1,6.2-21.4,1-22.7-10.3c-1-8.6-0.2-17.4-0.2-26.3c2.2,0,4.2,0,6.5,0c0.1,1.2,0.2,2.3,0.2,3.4c0,6.2,0,12.5,0,18.7
		c0,2.8,0.6,5.4,2.8,7.5c2.2,2.1,4.9,3.1,7.9,2.1c3.1-1,5.6-2.9,6.1-6.4c0.2-1.3,0.3-2.7,0.3-4.1c0-7,0-13.9,0-21.2
		c2.4,0,4.4,0,6.7,0C91.1,32.6,91.1,45.4,91.1,58.3z"/>
	<path d="M126.8,47.8c1.9,1.1,3.7,2.1,5.5,3.2c-3.3,6.3-13,9.7-20.4,7.5c-8.3-2.5-14.3-10.1-14.3-19c0-8.4,4.8-15.6,13.1-18.7
		c8.3-3.1,18.3,0.8,21.8,6.8c-0.9,0.6-1.7,1.3-2.6,1.8c-0.9,0.6-2,1.1-2.9,1.6c-8.1-5.2-14.8-5.1-19.2,0.3c-4.1,4.9-4,12,0.3,16.8
		C112.6,53.1,119,53.1,126.8,47.8z"/>
	<path d="M12.5,13.5c-4.6,0-8.4,0-12.5,0C0,11.2,0,9.3,0,7c10.5,0,20.9,0,31.6,0c0,2,0,4,0,6.5c-4,0-8,0-12.3,0c0,7.8,0,15.2,0,22.5
		c0,7.4,0,14.7,0,22.4c-2.3,0-4.3,0-6.8,0C12.5,43.7,12.5,28.9,12.5,13.5z"/>
	<path d="M55.6,23.4c-2.3,1.4-4.2,2.6-5.3,3.3c-3,0.1-5.2-0.3-7,0.4c-3.2,1.2-4.5,4.1-4.5,7.5c0,6.5,0,13,0,19.5c0,1.4,0,2.7,0,4.4
		c-2.3,0-4.3,0-6.4,0c-0.1-0.2-0.4-0.4-0.4-0.6c0-8.6-0.3-17.2,0.1-25.8c0.3-5.5,3.5-9.6,8.6-11.7C45.9,18.3,50.9,19,55.6,23.4z"/>
	<path d="M231.5,4.3c5.2,1.7,8.6,5,12.5,8.3c-2.3,4-6,6.6-9.1,9.7c-3,3.1-6.4,5.9-9.7,9c-1.6-1.2-3-2.2-4.8-3.6
		C224.1,19.8,227.8,12.1,231.5,4.3z"/>
	<path d="M229.3,39.9c-0.7-2-1.3-3.7-2-5.8c7.8-4.2,15.2-8.3,23.1-12.6c2.6,4.8,4.4,9.3,4.5,15C246.4,37.6,238.2,38.7,229.3,39.9z"
		/>
	<path d="M177.9,61.5c-3.4-4.6-4.5-9.3-5.1-14.8c8.7-1.1,17.1-2.2,25.8-3.4c0.7,2,1.2,3.6,2,5.7C193.1,53.2,185.7,57.2,177.9,61.5z"
		/>
	<path d="M207.5,27.8c-1.8,1.2-3.2,2.1-4.9,3.3c-6.4-6-12.5-11.9-18.9-17.9c3.7-4,7.4-7,12.5-9C200.3,11.8,203.9,19.5,207.5,27.8z"
		/>
	<path d="M217,26.3c-2.1,0-3.9,0-6.2,0c-1.6-8.3-3.1-16.6-4.7-25.1c5.2-2,10-0.9,15-1c0.5,4.8-1.1,8.9-1.7,13.1
		C218.9,17.5,217.9,21.7,217,26.3z"/>
	<path d="M200.6,34.1c-0.6,1.9-1,3.4-1.6,5.4c-8.7-0.6-17.2-1.8-26.1-3.2c0.6-5.3,2.2-9.8,4.6-14.7
		C185.4,25.5,192.9,29.8,200.6,34.1z"/>
	<path d="M227.4,49.1c0.6-2,1.2-3.6,1.8-5.7c8.5,1.1,16.9,2.2,25.4,3.3c0.5,5.6-1.9,9.9-4,14.8C242.6,57.8,235.1,53.5,227.4,49.1z"
		/>
</g>
</svg>
